' SPDX-FileCopyrightText: Copyright (c) 2024 Noel Anderson
' SPDX-License-Identifier: MIT

@startuml pca9955b

class PCA9955 {
    +PCA9955(i2c: I2C, address: int, oe_pin: Optional[microcontroller.Pin], reset_pin: Optional[microcontroller.Pin])
    ..
    +{field} channels: LedChannels
    +{field} groups: Groups
    +{field} subaddresses: SubAddresses
    .. core properties..
    +{field} output_enable: bool
    +{field} brightness: int
    +{field} gain: int
    .. global controls..
    +{field} exponential_graduation: bool
    +{field} blinking: bool
    +{field} pwm: int
    +{field} frequency: int
    +{field} output_delay: int
    .. low level control ..
    +{field} low_power_mode: bool
    +{field} auto_increment_flag: bool
    +{field} auto_increment_mode: int
    .. error management ..
    +{field} over_temp: bool (read only)
    +{field} errors_exist: bool (read only)
    ..
    +{method} clear_errors(): void
    +{method} deinit(): void
    +{method} reset(): void
}

class LedChannels {
    +{method} __len__(): int
    +{method} __getitem__(index: int): LedChannel
}

class Groups {
    +{method} __len__(): int
    +{method} __getitem__(index: int): Group
}


class SubAddresses {
    +{method} __len__(): int
    +{method} __getitem__(index: int): I2CSubAddress
}


'force layout
LedChannels-[hidden]--> dummy
hide dummy

class LedChannel {
    +{field} brightness: int
    +{field} gain: int
    +{field} state: int
    +{field} error: int
    +{field} groupId: int
    +{field} graduation_mode: bool
}
note left: Basic led control

class Group {
    +{field} gain: int
    +{field} graduation_mode: bool
    +{field} ramp_up: bool
    +{field} ramp_down: bool
    +{field} ramp_rate: int
    +{field} cycle_time: int
    +{field} factor_per_step: int
    +{field} hold_on: bool
    +{field} hold_on_time: int
    +{field} hold_off: bool
    +{field} hold_off_time: int
    +{method} graduation_start(): void
    +{method} graduation_stop(): void
}
note left: Complex automatic\ngroup actions


class SubAddress {
    +{field} address: int
    +{field} enable: bool
}
note right: Support for multiple\ndevices on same bus

 enum ErrorCodes {
     E_NONE: No error
     E_SHORT_CIRCUI: Short circuit
     E_OPEN_CIRCUIT: Open circuit
}

 enum OutputState{
     OFF: Channel off
     ON: Channel full on
     PWM: Channel PWM
     PWM_GRP: Channel PWM group
}

 enum SubAddressType{
    SUBADR1
    SUBADR2
    SUBADR3
    ALLCALLADR
}


PCA9955 "1" o--> "1 " LedChannels
LedChannels "1" *--> "16 " LedChannel
PCA9955 "1" o--> "1 "  Groups
Groups "1" *--> "4 " Group
PCA9955 "1" o--> "1 "  SubAddresses
SubAddresses "1" *--> "4 " SubAddress
Group "1" -->  "4" LedChannel  #green;line.dashed

LedChannel -- ErrorCodes
LedChannel -- OutputState
SubAddress -- SubAddressType

hide empty members
@enduml
